Coordinates
version=1
nRows=9
nColumns=24
inDegrees=yes

Units are S.I. units (second, meters, Newtons, ...)
Angles are in degrees.

endheader
time	pelvis_tilt	pelvis_list	pelvis_rotation	pelvis_tx	pelvis_ty	pelvis_tz	hip_flexion_r	hip_adduction_r	hip_rotation_r	knee_angle_r	ankle_angle_r	subtalar_angle_r	mtp_angle_r	hip_flexion_l	hip_adduction_l	hip_rotation_l	knee_angle_l	ankle_angle_l	subtalar_angle_l	mtp_angle_l	lumbar_extension	lumbar_bending	lumbar_rotation
      1.50033333	     -1.78634690	      5.63817000	     -1.52813684	      0.38081584	      0.90266582	      0.31070407	     17.62199167	    -10.39927748	     -8.33038475	    -70.66024164	      5.06203889	      8.36036969	      9.32465997	     12.30583944	      9.81388960	     -3.95603572	    -18.63330502	     10.57886030	     -7.45329692	      0.65443883	     -3.89504070	     -9.82807022	      2.74513969
      1.50450000	     -1.75691819	      5.53604910	     -1.24390537	      0.38591087	      0.90378633	      0.31021103	     18.16549508	    -10.26871593	     -8.50971382	    -70.17542105	      5.67645455	      8.10860361	      8.89475864	     11.59052722	      9.79638412	     -3.60840139	    -18.01144129	     10.48630620	     -7.41933475	      0.76314617	     -3.94588825	     -9.71099785	      2.28022374
      1.50866667	     -1.65964445	      5.38465406	     -0.96830774	      0.39103141	      0.90501766	      0.30977820	     18.59927403	    -10.07100384	     -8.69560167	    -69.59219551	      6.20631067	      7.81228000	      8.74217559	     10.80643690	      9.70244979	     -3.33113713	    -17.41292772	     10.49431443	     -7.23168252	      0.80641961	     -4.07140984	     -9.56313550	      2.04457664
      1.51283333	     -1.58834655	      5.24268736	     -0.67239942	      0.39609143	      0.90616094	      0.30931953	     19.05749941	     -9.88714565	     -8.88629423	    -68.97928352	      6.75230293	      7.52880333	      8.62615100	     10.06321420	      9.61595615	     -3.01698566	    -16.82701499	     10.45012581	     -7.06689621	      0.83854680	     -4.19750024	     -9.42815046	      1.74183051
      1.51700000	     -1.48417941	      5.10292931	     -0.37505450	      0.40120443	      0.90733664	      0.30882915	     19.45532140	     -9.72340687	     -9.10092196	    -68.30324164	      7.22496496	      7.27189292	      8.47526125	      9.25933819	      9.53126361	     -2.69198046	    -16.18902689	     10.41072108	     -6.96438305	      0.87746287	     -4.31611821	     -9.27328152	      1.33052901
      1.52116667	     -1.43118175	      4.98779667	     -0.05920219	      0.40623986	      0.90835804	      0.30828426	     19.91714077	     -9.59846446	     -9.31496122	    -67.62338582	      7.73846752	      7.05890841	      8.00532359	      8.51722791	      9.47977408	     -2.28091024	    -15.54697775	     10.29704740	     -6.99458185	      0.98867600	     -4.40534611	     -9.12754930	      0.82167037
      1.52533333	     -1.31094389	      4.83412255	      0.24287849	      0.41133365	      0.90948009	      0.30780793	     20.26835003	     -9.42019556	     -9.53701784	    -66.84628145	      8.13524971	      6.77812128	      7.86284589	      7.71356168	      9.35416395	     -2.00588143	    -14.93824151	     10.28056027	     -6.79243726	      1.02559788	     -4.54305854	     -8.96105770	      0.57324461
      1.52950000	     -1.22962838	      4.71371990	      0.56591753	      0.41636883	      0.91047263	      0.30727903	     20.66413953	     -9.29374646	     -9.76317067	    -66.06133307	      8.56915689	      6.55233689	      7.52438684	      6.94795066	      9.27232285	     -1.63331471	    -14.30277375	     10.16636226	     -6.74635775	      1.10460348	     -4.65445527	     -8.83603508	      0.06846713
      1.53366667	     -1.12758513	      4.54353212	      0.88397737	      0.42139543	      0.91147929	      0.30680342	     21.00859111	     -9.09767088	     -9.99146390	    -65.19101356	      8.92517265	      6.29463117	      7.41257707	      6.19045382	      9.11221293	     -1.34366469	    -13.73283358	     10.14764923	     -6.56239364	      1.13322575	     -4.78329825	     -8.65239769	     -0.14077008
